<mxfile host="Electron" agent="Mozilla/5.0 (Macintosh; Intel Mac OS X 10_15_7) AppleWebKit/537.36 (KHTML, like Gecko) draw.io/26.1.1 Chrome/132.0.6834.210 Electron/34.3.3 Safari/537.36" version="26.1.1">
  <diagram name="第 1 页" id="9R4-D0Y9t5YtUMrmhQuM">
    <mxGraphModel dx="1158" dy="844" grid="0" gridSize="10" guides="1" tooltips="1" connect="1" arrows="1" fold="1" page="0" pageScale="1" pageWidth="827" pageHeight="1169" math="0" shadow="0">
      <root>
        <mxCell id="0" />
        <mxCell id="1" parent="0" />
        <mxCell id="3jnSt60j7XIM4rOJes8d-57" value="" style="rounded=0;whiteSpace=wrap;html=1;dashed=1;fillColor=none;dashPattern=8 8;strokeColor=#b85450;" parent="1" vertex="1">
          <mxGeometry x="1165" y="260" width="230" height="220" as="geometry" />
        </mxCell>
        <mxCell id="2BCXa6215tNlRc6UTENC-6" value="&lt;span class=&quot;selected&quot;&gt;features&lt;/span&gt;" style="rounded=0;whiteSpace=wrap;html=1;fillColor=#dae8fc;strokeColor=#6c8ebf;" parent="1" vertex="1">
          <mxGeometry x="415" y="775" width="110" height="30" as="geometry" />
        </mxCell>
        <mxCell id="3jnSt60j7XIM4rOJes8d-20" style="edgeStyle=orthogonalEdgeStyle;rounded=0;orthogonalLoop=1;jettySize=auto;html=1;entryX=0;entryY=0.5;entryDx=0;entryDy=0;" parent="1" source="2BCXa6215tNlRc6UTENC-11" target="3jnSt60j7XIM4rOJes8d-19" edge="1">
          <mxGeometry relative="1" as="geometry" />
        </mxCell>
        <mxCell id="2BCXa6215tNlRc6UTENC-11" value="&lt;span class=&quot;selected&quot;&gt;numerical&lt;/span&gt;" style="rounded=0;whiteSpace=wrap;html=1;fillColor=#dae8fc;strokeColor=#6c8ebf;" parent="1" vertex="1">
          <mxGeometry x="1042.5" y="590" width="110" height="30" as="geometry" />
        </mxCell>
        <mxCell id="3jnSt60j7XIM4rOJes8d-21" style="edgeStyle=orthogonalEdgeStyle;rounded=0;orthogonalLoop=1;jettySize=auto;html=1;entryX=0;entryY=0.5;entryDx=0;entryDy=0;" parent="1" source="2BCXa6215tNlRc6UTENC-12" target="3jnSt60j7XIM4rOJes8d-19" edge="1">
          <mxGeometry relative="1" as="geometry">
            <mxPoint x="1200" y="670" as="targetPoint" />
          </mxGeometry>
        </mxCell>
        <mxCell id="2BCXa6215tNlRc6UTENC-12" value="&lt;span class=&quot;selected&quot;&gt; &lt;/span&gt;&lt;code&gt;equality&lt;/code&gt;" style="rounded=0;whiteSpace=wrap;html=1;fillColor=#dae8fc;strokeColor=#6c8ebf;" parent="1" vertex="1">
          <mxGeometry x="1042.5" y="655" width="110" height="30" as="geometry" />
        </mxCell>
        <mxCell id="3jnSt60j7XIM4rOJes8d-22" style="edgeStyle=orthogonalEdgeStyle;rounded=0;orthogonalLoop=1;jettySize=auto;html=1;entryX=0;entryY=0.5;entryDx=0;entryDy=0;" parent="1" source="2BCXa6215tNlRc6UTENC-13" target="3jnSt60j7XIM4rOJes8d-19" edge="1">
          <mxGeometry relative="1" as="geometry" />
        </mxCell>
        <mxCell id="2BCXa6215tNlRc6UTENC-13" value="&lt;span class=&quot;selected&quot;&gt;domains&lt;/span&gt;" style="rounded=0;whiteSpace=wrap;html=1;fillColor=#dae8fc;strokeColor=#6c8ebf;" parent="1" vertex="1">
          <mxGeometry x="1042.5" y="715" width="110" height="30" as="geometry" />
        </mxCell>
        <mxCell id="2BCXa6215tNlRc6UTENC-19" style="edgeStyle=orthogonalEdgeStyle;rounded=0;orthogonalLoop=1;jettySize=auto;html=1;exitX=0.25;exitY=0;exitDx=0;exitDy=0;entryX=0.75;entryY=0;entryDx=0;entryDy=0;" parent="1" source="2BCXa6215tNlRc6UTENC-11" target="2BCXa6215tNlRc6UTENC-11" edge="1">
          <mxGeometry relative="1" as="geometry">
            <Array as="points">
              <mxPoint x="1070.5" y="560" />
              <mxPoint x="1125.5" y="560" />
            </Array>
          </mxGeometry>
        </mxCell>
        <mxCell id="2BCXa6215tNlRc6UTENC-20" value="&amp;nbsp; &amp;nbsp; &amp;nbsp; &amp;nbsp;StandardScaler" style="edgeLabel;html=1;align=center;verticalAlign=middle;resizable=0;points=[];fontSize=12;fontColor=#CC0000;fontFamily=Georgia;" parent="2BCXa6215tNlRc6UTENC-19" vertex="1" connectable="0">
          <mxGeometry x="-0.1565" y="-2" relative="1" as="geometry">
            <mxPoint as="offset" />
          </mxGeometry>
        </mxCell>
        <mxCell id="2BCXa6215tNlRc6UTENC-21" value="&lt;font face=&quot;Georgia&quot; style=&quot;font-size: 12px; color: rgb(204, 0, 0);&quot;&gt;one-hot code&amp;nbsp;&lt;/font&gt;" style="edgeStyle=orthogonalEdgeStyle;rounded=0;orthogonalLoop=1;jettySize=auto;html=1;exitX=0.25;exitY=1;exitDx=0;exitDy=0;entryX=0.75;entryY=1;entryDx=0;entryDy=0;" parent="1" source="2BCXa6215tNlRc6UTENC-13" target="2BCXa6215tNlRc6UTENC-13" edge="1">
          <mxGeometry x="-0.0087" relative="1" as="geometry">
            <mxPoint as="offset" />
          </mxGeometry>
        </mxCell>
        <mxCell id="2BCXa6215tNlRc6UTENC-29" value="cross validation" style="text;whiteSpace=wrap;fontSize=14;fontFamily=Georgia;fontStyle=1;fontColor=#CC0000;" parent="1" vertex="1">
          <mxGeometry x="1040" y="315" width="100" height="35" as="geometry" />
        </mxCell>
        <mxCell id="2BCXa6215tNlRc6UTENC-33" style="edgeStyle=orthogonalEdgeStyle;rounded=0;orthogonalLoop=1;jettySize=auto;html=1;" parent="1" edge="1">
          <mxGeometry relative="1" as="geometry">
            <mxPoint x="1280.0000000000005" y="350" as="sourcePoint" />
            <mxPoint x="1280" y="390" as="targetPoint" />
          </mxGeometry>
        </mxCell>
        <mxCell id="3jnSt60j7XIM4rOJes8d-17" style="edgeStyle=orthogonalEdgeStyle;rounded=0;orthogonalLoop=1;jettySize=auto;html=1;strokeWidth=2;strokeColor=#CC0000;" parent="1" source="3jnSt60j7XIM4rOJes8d-1" edge="1">
          <mxGeometry relative="1" as="geometry">
            <mxPoint x="840" y="665" as="targetPoint" />
          </mxGeometry>
        </mxCell>
        <mxCell id="3jnSt60j7XIM4rOJes8d-42" style="edgeStyle=orthogonalEdgeStyle;rounded=0;orthogonalLoop=1;jettySize=auto;html=1;exitX=0.75;exitY=1;exitDx=0;exitDy=0;entryX=0.5;entryY=0;entryDx=0;entryDy=0;strokeWidth=2;strokeColor=#CC0000;" parent="1" source="3jnSt60j7XIM4rOJes8d-1" edge="1">
          <mxGeometry relative="1" as="geometry">
            <mxPoint x="685" y="769.9999999999998" as="targetPoint" />
          </mxGeometry>
        </mxCell>
        <mxCell id="3jnSt60j7XIM4rOJes8d-1" value="&#xa;&#xa;Feature-driven Multi-target KNN Parameter Prediction" style="shape=process;whiteSpace=wrap;align=center;verticalAlign=middle;size=0.025;fontStyle=1;strokeWidth=3;fillColor=#FFCCCC;spacingTop=-40;fontSize=15;" parent="1" vertex="1">
          <mxGeometry x="340" y="610" width="460" height="110" as="geometry" />
        </mxCell>
        <mxCell id="3jnSt60j7XIM4rOJes8d-9" style="edgeStyle=orthogonalEdgeStyle;rounded=0;orthogonalLoop=1;jettySize=auto;html=1;entryX=0;entryY=0.5;entryDx=0;entryDy=0;" parent="1" source="3jnSt60j7XIM4rOJes8d-6" target="2BCXa6215tNlRc6UTENC-12" edge="1">
          <mxGeometry relative="1" as="geometry" />
        </mxCell>
        <mxCell id="3jnSt60j7XIM4rOJes8d-10" style="edgeStyle=orthogonalEdgeStyle;rounded=0;orthogonalLoop=1;jettySize=auto;html=1;entryX=0;entryY=0.5;entryDx=0;entryDy=0;" parent="1" source="3jnSt60j7XIM4rOJes8d-6" target="2BCXa6215tNlRc6UTENC-11" edge="1">
          <mxGeometry relative="1" as="geometry" />
        </mxCell>
        <mxCell id="3jnSt60j7XIM4rOJes8d-11" style="edgeStyle=orthogonalEdgeStyle;rounded=0;orthogonalLoop=1;jettySize=auto;html=1;entryX=0;entryY=0.5;entryDx=0;entryDy=0;" parent="1" source="3jnSt60j7XIM4rOJes8d-6" target="2BCXa6215tNlRc6UTENC-13" edge="1">
          <mxGeometry relative="1" as="geometry" />
        </mxCell>
        <mxCell id="3jnSt60j7XIM4rOJes8d-6" value="&lt;p style=&quot;margin: 0px; margin-left: 8px;&quot;&gt;&lt;br&gt;&lt;/p&gt;&lt;p style=&quot;margin: 0px; margin-left: 8px;&quot;&gt;&lt;br&gt;&lt;/p&gt;" style="verticalAlign=middle;align=right;overflow=fill;fontSize=12;fontFamily=Helvetica;html=1;rounded=0;fontStyle=1;strokeWidth=2;fillColor=#fff2cc;strokeColor=#d6b656;" parent="1" vertex="1">
          <mxGeometry x="842.5" y="637" width="120" height="65" as="geometry" />
        </mxCell>
        <mxCell id="3jnSt60j7XIM4rOJes8d-7" value="&lt;span style=&quot;text-align: left;&quot;&gt;&lt;b&gt;&lt;u&gt;Extraction&lt;/u&gt;&lt;/b&gt;&lt;/span&gt;" style="text;strokeColor=none;align=center;fillColor=none;html=1;verticalAlign=middle;whiteSpace=wrap;rounded=0;" parent="1" vertex="1">
          <mxGeometry x="872.5" y="655" width="60" height="30" as="geometry" />
        </mxCell>
        <mxCell id="3jnSt60j7XIM4rOJes8d-24" value="" style="edgeStyle=orthogonalEdgeStyle;rounded=0;orthogonalLoop=1;jettySize=auto;html=1;strokeWidth=2;strokeColor=#CC0000;" parent="1" source="3jnSt60j7XIM4rOJes8d-19" target="3jnSt60j7XIM4rOJes8d-23" edge="1">
          <mxGeometry relative="1" as="geometry" />
        </mxCell>
        <mxCell id="3jnSt60j7XIM4rOJes8d-19" value="&lt;b&gt;&lt;u&gt;Processed feartures&lt;/u&gt;&lt;/b&gt;" style="rounded=0;whiteSpace=wrap;html=1;fillColor=#fff2cc;strokeColor=#d6b656;strokeWidth=2;" parent="1" vertex="1">
          <mxGeometry x="1220" y="640" width="120" height="60" as="geometry" />
        </mxCell>
        <mxCell id="3jnSt60j7XIM4rOJes8d-27" style="edgeStyle=orthogonalEdgeStyle;rounded=0;orthogonalLoop=1;jettySize=auto;html=1;entryX=1;entryY=0.5;entryDx=0;entryDy=0;strokeWidth=2;strokeColor=#CC0000;fontStyle=1" parent="1" source="3jnSt60j7XIM4rOJes8d-23" target="3jnSt60j7XIM4rOJes8d-26" edge="1">
          <mxGeometry relative="1" as="geometry" />
        </mxCell>
        <mxCell id="3jnSt60j7XIM4rOJes8d-28" value="&lt;font style=&quot;font-size: 14px;&quot;&gt;&lt;b&gt;Y&lt;/b&gt;&lt;/font&gt;" style="edgeLabel;html=1;align=center;verticalAlign=middle;resizable=0;points=[];" parent="3jnSt60j7XIM4rOJes8d-27" vertex="1" connectable="0">
          <mxGeometry x="-0.0139" y="2" relative="1" as="geometry">
            <mxPoint as="offset" />
          </mxGeometry>
        </mxCell>
        <mxCell id="3jnSt60j7XIM4rOJes8d-32" style="edgeStyle=orthogonalEdgeStyle;rounded=0;orthogonalLoop=1;jettySize=auto;html=1;exitX=0.5;exitY=0;exitDx=0;exitDy=0;entryX=0.5;entryY=1;entryDx=0;entryDy=0;strokeWidth=2;strokeColor=#CC0000;" parent="1" source="3jnSt60j7XIM4rOJes8d-23" target="3jnSt60j7XIM4rOJes8d-30" edge="1">
          <mxGeometry relative="1" as="geometry" />
        </mxCell>
        <mxCell id="3jnSt60j7XIM4rOJes8d-33" value="&lt;font style=&quot;font-size: 14px;&quot;&gt;&lt;b&gt;N&lt;/b&gt;&lt;/font&gt;" style="edgeLabel;html=1;align=center;verticalAlign=middle;resizable=0;points=[];" parent="3jnSt60j7XIM4rOJes8d-32" vertex="1" connectable="0">
          <mxGeometry x="-0.0165" relative="1" as="geometry">
            <mxPoint as="offset" />
          </mxGeometry>
        </mxCell>
        <mxCell id="3jnSt60j7XIM4rOJes8d-23" value="&lt;i&gt;Predict&lt;/i&gt;" style="rhombus;whiteSpace=wrap;html=1;rounded=0;fillColor=#f5f5f5;fontColor=#333333;strokeColor=#666666;" parent="1" vertex="1">
          <mxGeometry x="1240" y="490" width="80" height="80" as="geometry" />
        </mxCell>
        <mxCell id="3jnSt60j7XIM4rOJes8d-36" style="edgeStyle=orthogonalEdgeStyle;rounded=0;orthogonalLoop=1;jettySize=auto;html=1;entryX=0.5;entryY=0;entryDx=0;entryDy=0;strokeWidth=2;strokeColor=#CC0000;" parent="1" source="3jnSt60j7XIM4rOJes8d-26" target="3jnSt60j7XIM4rOJes8d-1" edge="1">
          <mxGeometry relative="1" as="geometry" />
        </mxCell>
        <mxCell id="3jnSt60j7XIM4rOJes8d-26" value="&lt;p style=&quot;margin: 4px 0px 0px; text-decoration: underline;&quot;&gt;&lt;br&gt;&lt;/p&gt;&lt;p style=&quot;margin: 4px 0px 0px; text-decoration: underline;&quot;&gt;Predicter&lt;/p&gt;&lt;p style=&quot;margin: 0px; margin-left: 8px;&quot;&gt;&lt;br&gt;&lt;/p&gt;" style="verticalAlign=middle;align=center;overflow=fill;fontSize=12;fontFamily=Helvetica;html=1;rounded=0;fontStyle=1;strokeWidth=2;fillColor=#fff2cc;strokeColor=#d6b656;" parent="1" vertex="1">
          <mxGeometry x="510" y="497.5" width="120" height="65" as="geometry" />
        </mxCell>
        <mxCell id="3jnSt60j7XIM4rOJes8d-34" style="edgeStyle=orthogonalEdgeStyle;rounded=0;orthogonalLoop=1;jettySize=auto;html=1;entryX=0.5;entryY=0;entryDx=0;entryDy=0;strokeWidth=2;strokeColor=#CC0000;" parent="1" source="3jnSt60j7XIM4rOJes8d-30" target="3jnSt60j7XIM4rOJes8d-26" edge="1">
          <mxGeometry relative="1" as="geometry" />
        </mxCell>
        <mxCell id="3jnSt60j7XIM4rOJes8d-30" value="&lt;p style=&quot;margin: 0px; margin-left: 8px;&quot;&gt;&lt;u style=&quot;background-color: transparent; color: light-dark(rgb(0, 0, 0), rgb(255, 255, 255));&quot;&gt;&lt;br&gt;&lt;/u&gt;&lt;/p&gt;&lt;p style=&quot;margin: 0px; margin-left: 8px;&quot;&gt;&lt;u style=&quot;background-color: transparent; color: light-dark(rgb(0, 0, 0), rgb(255, 255, 255));&quot;&gt;KNeighborsRegressor&lt;/u&gt;&lt;/p&gt;" style="verticalAlign=middle;align=center;overflow=fill;fontSize=12;fontFamily=Helvetica;html=1;rounded=0;fontStyle=1;strokeWidth=2;fillColor=#fff2cc;strokeColor=#d6b656;" parent="1" vertex="1">
          <mxGeometry x="1198.75" y="390" width="162.5" height="50" as="geometry" />
        </mxCell>
        <mxCell id="3jnSt60j7XIM4rOJes8d-35" value="&lt;font style=&quot;font-size: 14px;&quot;&gt;&lt;b&gt;best_k&lt;/b&gt;&lt;/font&gt;" style="text;strokeColor=none;align=center;fillColor=none;html=1;verticalAlign=middle;whiteSpace=wrap;rounded=0;" parent="1" vertex="1">
          <mxGeometry x="1010" y="380" width="60" height="30" as="geometry" />
        </mxCell>
        <mxCell id="3jnSt60j7XIM4rOJes8d-39" style="edgeStyle=orthogonalEdgeStyle;rounded=0;orthogonalLoop=1;jettySize=auto;html=1;entryX=0.281;entryY=0.985;entryDx=0;entryDy=0;entryPerimeter=0;strokeWidth=2;strokeColor=#CC0000;" parent="1" source="2BCXa6215tNlRc6UTENC-6" target="3jnSt60j7XIM4rOJes8d-1" edge="1">
          <mxGeometry relative="1" as="geometry" />
        </mxCell>
        <mxCell id="3jnSt60j7XIM4rOJes8d-43" value="Results" style="swimlane;fontStyle=0;childLayout=stackLayout;horizontal=1;startSize=30;horizontalStack=0;resizeParent=1;resizeParentMax=0;resizeLast=0;collapsible=1;marginBottom=0;whiteSpace=wrap;html=1;fillColor=#d5e8d4;strokeColor=#82b366;" parent="1" vertex="1">
          <mxGeometry x="620" y="770" width="140" height="120" as="geometry">
            <mxRectangle x="620" y="770" width="80" height="30" as="alternateBounds" />
          </mxGeometry>
        </mxCell>
        <mxCell id="3jnSt60j7XIM4rOJes8d-44" value="1. parameters" style="text;strokeColor=none;fillColor=none;align=left;verticalAlign=middle;spacingLeft=4;spacingRight=4;overflow=hidden;points=[[0,0.5],[1,0.5]];portConstraint=eastwest;rotatable=0;whiteSpace=wrap;html=1;" parent="3jnSt60j7XIM4rOJes8d-43" vertex="1">
          <mxGeometry y="30" width="140" height="30" as="geometry" />
        </mxCell>
        <mxCell id="3jnSt60j7XIM4rOJes8d-45" value="2. features" style="text;strokeColor=none;fillColor=none;align=left;verticalAlign=middle;spacingLeft=4;spacingRight=4;overflow=hidden;points=[[0,0.5],[1,0.5]];portConstraint=eastwest;rotatable=0;whiteSpace=wrap;html=1;" parent="3jnSt60j7XIM4rOJes8d-43" vertex="1">
          <mxGeometry y="60" width="140" height="30" as="geometry" />
        </mxCell>
        <mxCell id="3jnSt60j7XIM4rOJes8d-46" value="3. notes" style="text;strokeColor=none;fillColor=none;align=left;verticalAlign=middle;spacingLeft=4;spacingRight=4;overflow=hidden;points=[[0,0.5],[1,0.5]];portConstraint=eastwest;rotatable=0;whiteSpace=wrap;html=1;" parent="3jnSt60j7XIM4rOJes8d-43" vertex="1">
          <mxGeometry y="90" width="140" height="30" as="geometry" />
        </mxCell>
        <mxCell id="3jnSt60j7XIM4rOJes8d-53" value="&lt;font&gt;&amp;nbsp; &lt;b style=&quot;&quot;&gt;cv&lt;/b&gt; = 5&lt;/font&gt;&lt;div&gt;&lt;font&gt;&amp;nbsp; &lt;b style=&quot;&quot;&gt;k_values&lt;/b&gt; = [1,3,5,7]&lt;/font&gt;&lt;/div&gt;" style="rounded=0;whiteSpace=wrap;html=1;align=left;fillColor=#dae8fc;strokeColor=#6c8ebf;" parent="1" vertex="1">
          <mxGeometry x="1220" y="290" width="120" height="60" as="geometry" />
        </mxCell>
        <mxCell id="3jnSt60j7XIM4rOJes8d-58" value="" style="endArrow=classic;html=1;rounded=0;entryX=0.5;entryY=0;entryDx=0;entryDy=0;dashed=1;strokeColor=#CC0000;" parent="1" target="2BCXa6215tNlRc6UTENC-29" edge="1">
          <mxGeometry width="50" height="50" relative="1" as="geometry">
            <mxPoint x="1165" y="290" as="sourcePoint" />
            <mxPoint x="1095" y="290" as="targetPoint" />
          </mxGeometry>
        </mxCell>
      </root>
    </mxGraphModel>
  </diagram>
</mxfile>
